# xmcd
#
# Track frame offsets:
#	150
#	16409
#	30957
#	51776
#	68436
#	81954
#	101307
#	126053
#	144550
#	165893
#
# Disc length: 2504 seconds
#
# Revision: 1
# Processed by: cddbd v1.5.1PL2 Copyright (c) Steve Scherf et al.
# Submitted via: audiograbber 1.83.01
#
DISCID=6c09c60a
DTITLE=Roger Connelly - No Stranger To Bad Weather
DYEAR=1996
DGENRE=Blues
TTITLE0=Lifetime Of The Blues
TTITLE1=Go to Thank The Blackman
TTITLE2=Keep On Walkin'
TTITLE3=Don't Leave Me Here Tonight
TTITLE4=Brown Baggin' It Down Broadway
TTITLE5=Rainin' In My Heart
TTITLE6=Sleep Walkin'
TTITLE7=Bad Weather Blues
TTITLE8=The One In Grey
TTITLE9=Last Rites
EXTD=
EXTT0=
EXTT1=
EXTT2=
EXTT3=
EXTT4=
EXTT5=
EXTT6=
EXTT7=
EXTT8=
EXTT9=
PLAYORDER=
